<svg width="98" height="98" viewBox="0 0 98 98" fill="none" xmlns="http://www.w3.org/2000/svg">
<rect width="98" height="98" rx="20" fill="#9E9E9E"/>
<g clip-path="url(#clip0)">
<path d="M43.9808 29C40.9846 29 38.4615 31.5231 38.4615 34.5192C38.4615 37.5154 40.9846 40.0385 43.9808 40.0385C46.1254 40.0385 48.0019 38.7202 48.9087 36.8846H58.9615L60.5385 35.3077V33.7308L58.9615 32.1538H57.3846L56.1026 33.4359L55.0192 32.1538H53.7372L52.8021 33.0905L51.7172 32.1538H48.9087C48.0003 30.3183 46.127 29 43.9808 29ZM42.4038 32.9423C43.35 32.9423 43.9808 33.5731 43.9808 34.5192C43.9808 35.4654 43.35 36.0962 42.4038 36.0962C41.4577 36.0962 40.8269 35.4654 40.8269 34.5192C40.8269 33.5731 41.4577 32.9423 42.4038 32.9423ZM43.3405 43.1923C41.9373 43.1969 40.5744 43.6623 39.4616 44.5171C38.3487 45.3718 37.5474 46.5685 37.1811 47.9231L36.0457 52.6538H35.3077C34.3615 52.6538 33.7308 53.2846 33.7308 54.2308V55.8077C33.7308 56.7538 34.3615 57.3846 35.3077 57.3846V68.4231C35.3077 69.3692 35.9385 70 36.8846 70H40.0385C40.9846 70 41.6154 69.3692 41.6154 68.4231V66.8462H57.3846V68.4231C57.3846 69.3692 58.0154 70 58.9615 70H62.1154C63.0615 70 63.6923 69.3692 63.6923 68.4231V57.3846C64.6385 57.3846 65.2692 56.7538 65.2692 55.8077V54.2308C65.2692 53.2846 64.6385 52.6538 63.6923 52.6538H62.9527L61.8205 47.9231C61.032 45.0846 58.4979 43.1923 55.6595 43.1923H43.3405ZM43.3405 46.3462H55.6595C57.0787 46.3462 58.3513 47.2923 58.6667 48.7115L59.996 54.2308H39.004L40.3333 48.7115C40.6487 47.2923 41.9213 46.3462 43.3405 46.3462ZM40.8269 58.9615C42.0885 58.9615 43.1923 60.0654 43.1923 61.3269C43.1923 62.5885 42.0885 63.6923 40.8269 63.6923C39.5654 63.6923 38.4615 62.5885 38.4615 61.3269C38.4615 60.0654 39.5654 58.9615 40.8269 58.9615ZM58.1731 58.9615C59.4346 58.9615 60.5385 60.0654 60.5385 61.3269C60.5385 62.5885 59.4346 63.6923 58.1731 63.6923C56.9115 63.6923 55.8077 62.5885 55.8077 61.3269C55.8077 60.0654 56.9115 58.9615 58.1731 58.9615Z" fill="white"/>
</g>
<defs>
<clipPath id="clip0">
<rect width="41" height="41" fill="white" transform="translate(29 29)"/>
</clipPath>
</defs>
</svg>
