<svg width="98" height="98" viewBox="0 0 98 98" fill="none" xmlns="http://www.w3.org/2000/svg">
<rect width="98" height="98" rx="20" fill="#9E9E9E"/>
<path d="M48.5 32.4166C41.8887 32.4166 36.5417 37.7637 36.5417 44.375C36.5417 51.4987 44.0925 61.3216 47.2017 65.0629C47.885 65.8829 49.1321 65.8829 49.8154 65.0629C52.9075 61.3216 60.4583 51.4987 60.4583 44.375C60.4583 37.7637 55.1112 32.4166 48.5 32.4166ZM48.5 48.6458C47.3673 48.6458 46.281 48.1958 45.4801 47.3949C44.6791 46.594 44.2292 45.5077 44.2292 44.375C44.2292 43.2423 44.6791 42.156 45.4801 41.355C46.281 40.5541 47.3673 40.1041 48.5 40.1041C49.6327 40.1041 50.719 40.5541 51.5199 41.355C52.3209 42.156 52.7708 43.2423 52.7708 44.375C52.7708 45.5077 52.3209 46.594 51.5199 47.3949C50.719 48.1958 49.6327 48.6458 48.5 48.6458Z" fill="white"/>
</svg>
