<svg width="98" height="98" viewBox="0 0 98 98" fill="none" xmlns="http://www.w3.org/2000/svg">
<rect width="98" height="98" rx="20" fill="#9E9E9E"/>
<path d="M60.4583 35.8333H58.75V34.125C58.75 33.1854 57.9813 32.4166 57.0417 32.4166C56.1021 32.4166 55.3333 33.1854 55.3333 34.125V35.8333H41.6667V34.125C41.6667 33.1854 40.8979 32.4166 39.9583 32.4166C39.0188 32.4166 38.25 33.1854 38.25 34.125V35.8333H36.5417C34.6454 35.8333 33.1421 37.3708 33.1421 39.25L33.125 63.1666C33.125 64.0728 33.485 64.9418 34.1257 65.5826C34.7665 66.2233 35.6355 66.5833 36.5417 66.5833H60.4583C62.3375 66.5833 63.875 65.0458 63.875 63.1666V39.25C63.875 37.3708 62.3375 35.8333 60.4583 35.8333ZM60.4583 61.4583C60.4583 62.3979 59.6896 63.1666 58.75 63.1666H38.25C37.3104 63.1666 36.5417 62.3979 36.5417 61.4583V44.375H60.4583V61.4583ZM39.9583 47.7916H43.375V51.2083H39.9583V47.7916ZM46.7917 47.7916H50.2083V51.2083H46.7917V47.7916ZM53.625 47.7916H57.0417V51.2083H53.625V47.7916Z" fill="white"/>
</svg>
