<svg width="62" height="60" viewBox="0 0 62 60" fill="none" xmlns="http://www.w3.org/2000/svg">
<path d="M60.8919 30C60.8919 46.2861 47.5091 59.5 30.9865 59.5C14.4638 59.5 1.08105 46.2861 1.08105 30C1.08105 13.7139 14.4638 0.5 30.9865 0.5C47.5091 0.5 60.8919 13.7139 60.8919 30Z" fill="white" stroke="#9E9E9E"/>
<path fill-rule="evenodd" clip-rule="evenodd" d="M36.6218 29.2478C36.7218 29.1488 36.8407 29.0703 36.9715 29.0167C37.1023 28.9632 37.2426 28.9356 37.3842 28.9356C37.5258 28.9356 37.6661 28.9632 37.7969 29.0167C37.9278 29.0703 38.0466 29.1488 38.1466 29.2478L44.6078 35.6228C44.7081 35.7215 44.7876 35.8387 44.8419 35.9678C44.8962 36.0969 44.9241 36.2353 44.9241 36.375C44.9241 36.5148 44.8962 36.6531 44.8419 36.7822C44.7876 36.9113 44.7081 37.0286 44.6078 37.1273L38.1466 43.5023C37.9444 43.7018 37.6702 43.8139 37.3842 43.8139C37.0982 43.8139 36.824 43.7018 36.6218 43.5023C36.4196 43.3027 36.306 43.0322 36.306 42.75C36.306 42.4679 36.4196 42.1973 36.6218 41.9978L42.3227 36.375L36.6218 30.7523C36.5215 30.6536 36.4419 30.5363 36.3877 30.4072C36.3334 30.2781 36.3054 30.1398 36.3054 30C36.3054 29.8603 36.3334 29.7219 36.3877 29.5928C36.4419 29.4637 36.5215 29.3465 36.6218 29.2478V29.2478Z" fill="#9E9E9E"/>
<path fill-rule="evenodd" clip-rule="evenodd" d="M19.0776 36.375C19.0776 36.0932 19.1911 35.823 19.393 35.6237C19.595 35.4244 19.8689 35.3125 20.1545 35.3125H42.7685C43.0541 35.3125 43.328 35.4244 43.5299 35.6237C43.7319 35.823 43.8453 36.0932 43.8453 36.375C43.8453 36.6568 43.7319 36.9271 43.5299 37.1263C43.328 37.3256 43.0541 37.4375 42.7685 37.4375H20.1545C19.8689 37.4375 19.595 37.3256 19.393 37.1263C19.1911 36.9271 19.0776 36.6568 19.0776 36.375ZM27.378 16.4978C27.4783 16.5965 27.5579 16.7137 27.6122 16.8428C27.6665 16.9719 27.6944 17.1103 27.6944 17.25C27.6944 17.3898 27.6665 17.5281 27.6122 17.6572C27.5579 17.7863 27.4783 17.9036 27.378 18.0023L21.6771 23.625L27.378 29.2478C27.4782 29.3465 27.5576 29.4638 27.6118 29.5929C27.6659 29.722 27.6938 29.8603 27.6938 30C27.6938 30.1397 27.6659 30.2781 27.6118 30.4071C27.5576 30.5362 27.4782 30.6535 27.378 30.7523C27.2779 30.851 27.159 30.9294 27.0282 30.9829C26.8974 31.0363 26.7572 31.0638 26.6156 31.0638C26.474 31.0638 26.3338 31.0363 26.203 30.9829C26.0722 30.9294 25.9533 30.851 25.8532 30.7523L19.3921 24.3773C19.2918 24.2786 19.2122 24.1613 19.1579 24.0322C19.1036 23.9031 19.0757 23.7648 19.0757 23.625C19.0757 23.4853 19.1036 23.3469 19.1579 23.2178C19.2122 23.0887 19.2918 22.9715 19.3921 22.8728L25.8532 16.4978C25.9532 16.3988 26.0721 16.3203 26.2029 16.2667C26.3337 16.2132 26.474 16.1856 26.6156 16.1856C26.7573 16.1856 26.8975 16.2132 27.0283 16.2667C27.1592 16.3203 27.278 16.3988 27.378 16.4978V16.4978Z" fill="#9E9E9E"/>
<path fill-rule="evenodd" clip-rule="evenodd" d="M20.1545 23.625C20.1545 23.3432 20.268 23.073 20.4699 22.8737C20.6719 22.6744 20.9458 22.5625 21.2314 22.5625H43.8454C44.131 22.5625 44.4049 22.6744 44.6069 22.8737C44.8088 23.073 44.9223 23.3432 44.9223 23.625C44.9223 23.9068 44.8088 24.177 44.6069 24.3763C44.4049 24.5756 44.131 24.6875 43.8454 24.6875H21.2314C20.9458 24.6875 20.6719 24.5756 20.4699 24.3763C20.268 24.177 20.1545 23.9068 20.1545 23.625Z" fill="#9E9E9E"/>
</svg>
