<svg width="25" height="25" viewBox="0 0 25 25" fill="none" xmlns="http://www.w3.org/2000/svg">
<path d="M12.4988 7.68436C11.2213 7.68436 9.9962 8.19183 9.0929 9.09513C8.1896 9.99843 7.68213 11.2236 7.68213 12.501C7.68213 13.7785 8.1896 15.0036 9.0929 15.9069C9.9962 16.8102 11.2213 17.3177 12.4988 17.3177C13.7763 17.3177 15.0014 16.8102 15.9047 15.9069C16.808 15.0036 17.3155 13.7785 17.3155 12.501C17.3155 11.2236 16.808 9.99843 15.9047 9.09513C15.0014 8.19183 13.7763 7.68436 12.4988 7.68436ZM12.4988 15.6291C11.6689 15.6291 10.873 15.2995 10.2861 14.7126C9.69931 14.1258 9.36963 13.3299 9.36963 12.5C9.36963 11.6701 9.69931 10.8742 10.2861 10.2873C10.873 9.70049 11.6689 9.37082 12.4988 9.37082C13.3287 9.37082 14.1246 9.70049 14.7114 10.2873C15.2983 10.8742 15.628 11.6701 15.628 12.5C15.628 13.3299 15.2983 14.1258 14.7114 14.7126C14.1246 15.2995 13.3287 15.6291 12.4988 15.6291Z" fill="#9E9E9E"/>
<path d="M17.5062 8.63017C18.1264 8.63017 18.6291 8.12743 18.6291 7.50726C18.6291 6.88709 18.1264 6.38434 17.5062 6.38434C16.886 6.38434 16.3833 6.88709 16.3833 7.50726C16.3833 8.12743 16.886 8.63017 17.5062 8.63017Z" fill="#9E9E9E"/>
<path d="M21.3884 6.36562C21.1473 5.74289 20.7788 5.17737 20.3065 4.70526C19.8342 4.23316 19.2685 3.86486 18.6457 3.62395C17.9169 3.35037 17.1469 3.20243 16.3686 3.18645C15.3655 3.1427 15.0478 3.1302 12.504 3.1302C9.96029 3.1302 9.63424 3.1302 8.63945 3.18645C7.86173 3.20162 7.09232 3.34958 6.36445 3.62395C5.74147 3.86458 5.17567 4.23278 4.70334 4.70492C4.23102 5.17706 3.86261 5.74273 3.62174 6.36562C3.3481 7.09438 3.20051 7.86441 3.18529 8.6427C3.14049 9.64479 3.12695 9.9625 3.12695 12.5073C3.12695 15.051 3.12695 15.375 3.18529 16.3719C3.20091 17.151 3.34779 17.9198 3.62174 18.65C3.86328 19.2727 4.23205 19.8381 4.70449 20.3102C5.17693 20.7823 5.74264 21.1506 6.36549 21.3917C7.09199 21.6762 7.86171 21.8348 8.64154 21.8604C9.64466 21.9042 9.96237 21.9177 12.5061 21.9177C15.0499 21.9177 15.3759 21.9177 16.3707 21.8604C17.1489 21.8446 17.9189 21.697 18.6478 21.424C19.2704 21.1825 19.8359 20.8139 20.3082 20.3416C20.7804 19.8694 21.149 19.3039 21.3905 18.6812C21.6645 17.9521 21.8113 17.1833 21.827 16.4042C21.8717 15.4021 21.8853 15.0844 21.8853 12.5396C21.8853 9.99479 21.8853 9.67187 21.827 8.675C21.8148 7.8857 21.6665 7.10442 21.3884 6.36562ZM20.1197 16.2948C20.1129 16.8951 20.0034 17.4898 19.7957 18.0531C19.6393 18.4582 19.3998 18.826 19.0927 19.133C18.7855 19.4399 18.4175 19.6792 18.0124 19.8354C17.4553 20.0421 16.8669 20.1517 16.2728 20.1594C15.2832 20.2052 15.004 20.2167 12.4665 20.2167C9.92695 20.2167 9.66758 20.2167 8.65924 20.1594C8.06542 20.1521 7.47729 20.0425 6.9207 19.8354C6.51413 19.6802 6.14466 19.4413 5.83621 19.1343C5.52776 18.8273 5.2872 18.459 5.13008 18.0531C4.92533 17.4959 4.81582 16.9082 4.80612 16.3146C4.76133 15.325 4.75091 15.0458 4.75091 12.5083C4.75091 9.96979 4.75091 9.71041 4.80612 8.70104C4.81285 8.10106 4.92243 7.50668 5.13008 6.94374C5.44779 6.12187 6.09883 5.47499 6.9207 5.16041C7.47757 4.95431 8.06552 4.84475 8.65924 4.83645C9.64987 4.79166 9.928 4.77916 12.4665 4.77916C15.0051 4.77916 15.2655 4.77916 16.2728 4.83645C16.867 4.8436 17.4555 4.95319 18.0124 5.16041C18.4175 5.31695 18.7854 5.55646 19.0925 5.86357C19.3997 6.17068 19.6392 6.53861 19.7957 6.94374C20.0004 7.50098 20.11 8.0887 20.1197 8.68229C20.1645 9.67291 20.1759 9.95104 20.1759 12.4896C20.1759 15.0271 20.1759 15.3 20.1311 16.2958H20.1197V16.2948Z" fill="#9E9E9E"/>
</svg>
