<svg width="25" height="25" viewBox="0 0 25 25" fill="none" xmlns="http://www.w3.org/2000/svg">
<path fill-rule="evenodd" clip-rule="evenodd" d="M3.13542 6.08128C3.13542 5.80501 3.24516 5.54006 3.44051 5.34471C3.63586 5.14936 3.90082 5.03961 4.17708 5.03961H20.8333C21.1096 5.03961 21.3746 5.14936 21.5699 5.34471C21.7653 5.54006 21.875 5.80501 21.875 6.08128V17.8771C21.875 18.4296 21.6555 18.9595 21.2648 19.3502C20.8741 19.741 20.3442 19.9604 19.7917 19.9604H5.20833C4.6558 19.9604 4.12589 19.741 3.73519 19.3502C3.34449 18.9595 3.125 18.4296 3.125 17.8771V6.41878C3.125 6.36878 3.12812 6.32086 3.13542 6.27294V6.08128ZM5.20833 8.39795V17.8771H19.7917V8.39795L14.7094 13.4802C14.1234 14.0661 13.3286 14.3952 12.5 14.3952C11.6714 14.3952 10.8766 14.0661 10.2906 13.4802L5.20833 8.39586V8.39795ZM6.84583 7.08961H18.1542L13.2375 12.0063C13.1408 12.1031 13.0259 12.18 12.8994 12.2324C12.773 12.2848 12.6374 12.3118 12.5005 12.3118C12.3636 12.3118 12.2281 12.2848 12.1016 12.2324C11.9752 12.18 11.8603 12.1031 11.7635 12.0063L6.84687 7.08961H6.84583Z" fill="#9E9E9E"/>
</svg>
