<svg width="17" height="17" viewBox="0 0 17 17" fill="none" xmlns="http://www.w3.org/2000/svg">
<path d="M14.875 7.08333C14.875 12.0417 8.5 16.2917 8.5 16.2917C8.5 16.2917 2.125 12.0417 2.125 7.08333C2.125 5.39257 2.79665 3.77107 3.99219 2.57552C5.18774 1.37998 6.80924 0.708328 8.5 0.708328C10.1908 0.708328 11.8123 1.37998 13.0078 2.57552C14.2033 3.77107 14.875 5.39257 14.875 7.08333Z" stroke="#212121" stroke-linecap="round" stroke-linejoin="round"/>
<path d="M8.5 9.20833C9.6736 9.20833 10.625 8.25693 10.625 7.08333C10.625 5.90972 9.6736 4.95833 8.5 4.95833C7.32639 4.95833 6.375 5.90972 6.375 7.08333C6.375 8.25693 7.32639 9.20833 8.5 9.20833Z" stroke="#212121" stroke-linecap="round" stroke-linejoin="round"/>
</svg>
