<svg width="67" height="67" viewBox="0 0 67 67" fill="none" xmlns="http://www.w3.org/2000/svg">
<path fill-rule="evenodd" clip-rule="evenodd" d="M32.8886 47.545C32.6941 47.74 32.4631 47.8947 32.2087 48.0003C31.9544 48.1058 31.6817 48.1602 31.4063 48.1602C31.1309 48.1602 30.8582 48.1058 30.6038 48.0003C30.3494 47.8947 30.1184 47.74 29.9239 47.545L17.3614 34.9825C17.1664 34.788 17.0117 34.557 16.9062 34.3026C16.8006 34.0483 16.7463 33.7756 16.7463 33.5002C16.7463 33.2248 16.8006 32.9521 16.9062 32.6977C17.0117 32.4433 17.1664 32.2123 17.3614 32.0178L29.9239 19.4553C30.317 19.0621 30.8503 18.8413 31.4063 18.8413C31.9623 18.8413 32.4955 19.0621 32.8886 19.4553C33.2818 19.8484 33.5027 20.3817 33.5027 20.9377C33.5027 21.4937 33.2818 22.0269 32.8886 22.42L21.8043 33.5002L32.8886 44.5803C33.0836 44.7748 33.2383 45.0058 33.3439 45.2602C33.4494 45.5146 33.5038 45.7873 33.5038 46.0627C33.5038 46.3381 33.4494 46.6108 33.3439 46.8651C33.2383 47.1195 33.0836 47.3505 32.8886 47.545Z" fill="#9E9E9E"/>
<path fill-rule="evenodd" clip-rule="evenodd" d="M50.25 33.5C50.25 34.0553 50.0294 34.5879 49.6368 34.9805C49.2441 35.3732 48.7115 35.5937 48.1562 35.5937L20.9375 35.5937C20.3822 35.5937 19.8496 35.3732 19.457 34.9805C19.0643 34.5878 18.8438 34.0553 18.8438 33.5C18.8438 32.9447 19.0643 32.4121 19.457 32.0195C19.8496 31.6268 20.3822 31.4062 20.9375 31.4062L48.1563 31.4062C48.7115 31.4062 49.2441 31.6268 49.6368 32.0195C50.0294 32.4121 50.25 32.9447 50.25 33.5Z" fill="#9E9E9E"/>
</svg>
