<svg width="25" height="25" viewBox="0 0 25 25" fill="none" xmlns="http://www.w3.org/2000/svg">
<path d="M12.499 7.68438C11.2215 7.68438 9.99638 8.19185 9.09308 9.09515C8.18978 9.99845 7.68231 11.2236 7.68231 12.501C7.68231 13.7785 8.18978 15.0036 9.09308 15.9069C9.99638 16.8102 11.2215 17.3177 12.499 17.3177C13.7764 17.3177 15.0016 16.8102 15.9049 15.9069C16.8082 15.0036 17.3156 13.7785 17.3156 12.501C17.3156 11.2236 16.8082 9.99845 15.9049 9.09515C15.0016 8.19185 13.7764 7.68438 12.499 7.68438ZM12.499 15.6292C11.6691 15.6292 10.8732 15.2995 10.2863 14.7127C9.69949 14.1258 9.36981 13.3299 9.36981 12.5C9.36981 11.6701 9.69949 10.8742 10.2863 10.2873C10.8732 9.70052 11.6691 9.37084 12.499 9.37084C13.3289 9.37084 14.1248 9.70052 14.7116 10.2873C15.2985 10.8742 15.6281 11.6701 15.6281 12.5C15.6281 13.3299 15.2985 14.1258 14.7116 14.7127C14.1248 15.2995 13.3289 15.6292 12.499 15.6292Z" fill="#9E9E9E"/>
<path d="M17.5063 8.63021C18.1264 8.63021 18.6292 8.12746 18.6292 7.50729C18.6292 6.88712 18.1264 6.38438 17.5063 6.38438C16.8861 6.38438 16.3834 6.88712 16.3834 7.50729C16.3834 8.12746 16.8861 8.63021 17.5063 8.63021Z" fill="#9E9E9E"/>
<path d="M21.3885 6.36562C21.1474 5.74289 20.7789 5.17737 20.3066 4.70526C19.8343 4.23316 19.2686 3.86486 18.6458 3.62395C17.917 3.35037 17.1471 3.20243 16.3687 3.18645C15.3656 3.1427 15.0479 3.1302 12.5042 3.1302C9.96041 3.1302 9.63437 3.1302 8.63958 3.18645C7.86186 3.20162 7.09245 3.34958 6.36458 3.62395C5.74159 3.86458 5.17579 4.23278 4.70346 4.70492C4.23114 5.17706 3.86273 5.74273 3.62187 6.36562C3.34823 7.09438 3.20063 7.86441 3.18541 8.6427C3.14062 9.64479 3.12708 9.9625 3.12708 12.5073C3.12708 15.051 3.12708 15.375 3.18541 16.3719C3.20103 17.151 3.34791 17.9198 3.62187 18.65C3.86341 19.2727 4.23218 19.8381 4.70461 20.3102C5.17705 20.7823 5.74277 21.1506 6.36562 21.3917C7.09211 21.6762 7.86184 21.8348 8.64166 21.8604C9.64478 21.9042 9.96249 21.9177 12.5062 21.9177C15.05 21.9177 15.376 21.9177 16.3708 21.8604C17.1491 21.8446 17.919 21.697 18.6479 21.424C19.2706 21.1825 19.8361 20.8139 20.3083 20.3416C20.7805 19.8694 21.1491 19.3039 21.3906 18.6812C21.6646 17.9521 21.8114 17.1833 21.8271 16.4042C21.8719 15.4021 21.8854 15.0844 21.8854 12.5396C21.8854 9.99479 21.8854 9.67187 21.8271 8.675C21.8149 7.8857 21.6666 7.10442 21.3885 6.36562ZM20.1198 16.2948C20.1131 16.8951 20.0035 17.4898 19.7958 18.0531C19.6394 18.4582 19.3999 18.826 19.0928 19.133C18.7856 19.44 18.4177 19.6792 18.0125 19.8354C17.4554 20.0421 16.867 20.1517 16.2729 20.1594C15.2833 20.2052 15.0042 20.2167 12.4667 20.2167C9.92708 20.2167 9.6677 20.2167 8.65937 20.1594C8.06554 20.1521 7.47741 20.0425 6.92083 19.8354C6.51425 19.6802 6.14479 19.4413 5.83634 19.1343C5.52789 18.8273 5.28732 18.459 5.1302 18.0531C4.92546 17.4959 4.81594 16.9082 4.80624 16.3146C4.76145 15.325 4.75103 15.0458 4.75103 12.5083C4.75103 9.96979 4.75103 9.71041 4.80624 8.70104C4.81297 8.10106 4.92255 7.50668 5.1302 6.94375C5.44791 6.12187 6.09895 5.475 6.92083 5.16041C7.47769 4.95431 8.06564 4.84475 8.65937 4.83645C9.64999 4.79166 9.92812 4.77916 12.4667 4.77916C15.0052 4.77916 15.2656 4.77916 16.2729 4.83645C16.8671 4.8436 17.4556 4.95319 18.0125 5.16041C18.4176 5.31695 18.7856 5.55646 19.0927 5.86357C19.3998 6.17068 19.6393 6.53861 19.7958 6.94375C20.0006 7.50098 20.1101 8.0887 20.1198 8.68229C20.1646 9.67291 20.176 9.95104 20.176 12.4896C20.176 15.0271 20.176 15.3 20.1312 16.2958H20.1198V16.2948Z" fill="#9E9E9E"/>
</svg>
