<svg width="68" height="68" viewBox="0 0 68 68" fill="none" xmlns="http://www.w3.org/2000/svg">
<circle cx="34" cy="34" r="34" fill="#F2F2F2"/>
<path d="M47.5469 32.9375H38.25C37.4046 32.9375 36.5939 32.6017 35.9961 32.0039C35.3983 31.4061 35.0625 30.5954 35.0625 29.75V20.4531C35.0625 20.3827 35.0345 20.3151 34.9847 20.2653C34.9349 20.2155 34.8673 20.1875 34.7969 20.1875H31.2607C31.1367 19.9578 30.9923 19.7398 30.8291 19.5361C30.0634 18.5858 28.9259 18.0625 27.625 18.0625C25.1228 18.0625 23.375 20.0288 23.375 22.8438V32.4062C23.375 34.0664 24.7257 35.0625 26.0312 35.0625C26.3811 35.0663 26.7283 35.0002 27.0523 34.8681C27.3763 34.736 27.6706 34.5404 27.918 34.293C28.1654 34.0456 28.361 33.7513 28.4931 33.4273C28.6252 33.1033 28.6913 32.7561 28.6875 32.4062V22.3125C28.6875 22.0307 28.5756 21.7605 28.3763 21.5612C28.177 21.3619 27.9068 21.25 27.625 21.25C27.3432 21.25 27.073 21.3619 26.8737 21.5612C26.6744 21.7605 26.5625 22.0307 26.5625 22.3125V32.4062C26.5648 32.4766 26.5526 32.5468 26.5268 32.6123C26.5009 32.6778 26.4618 32.7372 26.412 32.787C26.3622 32.8368 26.3028 32.8759 26.2373 32.9018C26.1718 32.9276 26.1016 32.9398 26.0312 32.9375C25.8832 32.9375 25.5 32.8419 25.5 32.4062V22.8438C25.5 21.5595 26.0585 20.1875 27.625 20.1875C29.5966 20.1875 29.75 22.1896 29.75 22.8026V32.0164C29.75 33.1752 29.3868 34.2231 28.7267 34.9689C28.0566 35.7266 27.125 36.125 26.0312 36.125C24.9375 36.125 24.0059 35.7266 23.3358 34.9689C22.6757 34.2231 22.3125 33.1752 22.3125 32.0164V26.5625C22.3125 26.2807 22.2006 26.0105 22.0013 25.8112C21.802 25.6119 21.5318 25.5 21.25 25.5C20.9682 25.5 20.698 25.6119 20.4987 25.8112C20.2994 26.0105 20.1875 26.2807 20.1875 26.5625V32.0164C20.1875 35.437 22.3915 37.9684 25.5 38.2274V45.6875C25.5 46.8147 25.9478 47.8957 26.7448 48.6927C27.5418 49.4897 28.6228 49.9375 29.75 49.9375H43.5625C44.6897 49.9375 45.7707 49.4897 46.5677 48.6927C47.3647 47.8957 47.8125 46.8147 47.8125 45.6875V33.2031C47.8125 33.1327 47.7845 33.0651 47.7347 33.0153C47.6849 32.9655 47.6173 32.9375 47.5469 32.9375Z" fill="#9E9E9E"/>
<path d="M38.25 30.8125H46.8702C46.8964 30.8124 46.922 30.8046 46.9437 30.79C46.9654 30.7753 46.9824 30.7546 46.9924 30.7304C47.0024 30.7062 47.005 30.6796 46.9999 30.6539C46.9949 30.6283 46.9823 30.6046 46.9638 30.5861L37.4139 21.0362C37.3954 21.0177 37.3718 21.0052 37.3461 21.0001C37.3204 20.995 37.2938 20.9976 37.2696 21.0076C37.2454 21.0176 37.2247 21.0346 37.2101 21.0563C37.1955 21.0781 37.1876 21.1036 37.1875 21.1298V29.75C37.1875 30.0318 37.2994 30.3021 37.4987 30.5013C37.698 30.7006 37.9682 30.8125 38.25 30.8125Z" fill="#9E9E9E"/>
</svg>
