<svg width="68" height="68" viewBox="0 0 68 68" fill="none" xmlns="http://www.w3.org/2000/svg">
<circle cx="34" cy="34" r="34" fill="#F2F2F2"/>
<path d="M47.868 19.0967L48.7038 19.9325C49.8556 21.0857 49.6813 23.1299 48.3114 24.4984L31.0748 41.735L25.4903 43.7778C24.7891 44.0357 24.1063 43.7014 23.9674 43.0341C23.9205 42.7921 23.9426 42.5417 24.0312 42.3116L26.1137 36.6789L43.3021 19.4891C44.672 18.1206 46.7163 17.9449 47.868 19.0981V19.0967ZM30.3226 20.8108C30.5086 20.8108 30.6928 20.8475 30.8647 20.9187C31.0366 20.9899 31.1928 21.0942 31.3243 21.2258C31.4559 21.3573 31.5602 21.5135 31.6314 21.6854C31.7026 21.8573 31.7393 22.0415 31.7393 22.2275C31.7393 22.4136 31.7026 22.5978 31.6314 22.7697C31.5602 22.9415 31.4559 23.0977 31.3243 23.2292C31.1928 23.3608 31.0366 23.4652 30.8647 23.5363C30.6928 23.6075 30.5086 23.6442 30.3226 23.6442H24.6559C23.9045 23.6442 23.1838 23.9427 22.6525 24.474C22.1211 25.0054 21.8226 25.7261 21.8226 26.4775V43.4775C21.8226 44.229 22.1211 44.9496 22.6525 45.481C23.1838 46.0123 23.9045 46.3109 24.6559 46.3109H41.6559C42.4074 46.3109 43.128 46.0123 43.6594 45.481C44.1907 44.9496 44.4893 44.229 44.4893 43.4775V37.8109C44.4893 37.4351 44.6385 37.0748 44.9042 36.8091C45.1699 36.5434 45.5302 36.3942 45.9059 36.3942C46.2816 36.3942 46.642 36.5434 46.9077 36.8091C47.1733 37.0748 47.3226 37.4351 47.3226 37.8109V43.4775C47.3226 44.9804 46.7256 46.4217 45.6629 47.4845C44.6002 48.5472 43.1588 49.1442 41.6559 49.1442H24.6559C23.153 49.1442 21.7117 48.5472 20.649 47.4845C19.5863 46.4217 18.9893 44.9804 18.9893 43.4775V26.4775C18.9893 24.9746 19.5863 23.5333 20.649 22.4706C21.7117 21.4079 23.153 20.8108 24.6559 20.8108H30.3226Z" fill="#9E9E9E"/>
</svg>
