<svg width="68" height="68" viewBox="0 0 68 68" fill="none" xmlns="http://www.w3.org/2000/svg">
<circle cx="34" cy="34" r="34" fill="#F2F2F2"/>
<path d="M42.2202 37.624L41.349 32.392C41.2587 31.8346 40.9724 31.3277 40.5417 30.9625C40.111 30.5973 39.5641 30.3979 38.9994 30.4H29.001C28.4369 30.3989 27.8908 30.5988 27.4607 30.9638C27.0305 31.3289 26.7445 31.8352 26.6538 32.392L25.7802 37.6288C25.0874 37.6602 24.4332 37.9567 23.9529 38.4571C23.4727 38.9574 23.2032 39.6233 23.2002 40.3168V47.2H25.6002C25.6002 47.8365 25.8531 48.4469 26.3031 48.897C26.7532 49.3471 27.3637 49.6 28.0002 49.6C28.6367 49.6 29.2472 49.3471 29.6973 48.897C30.1473 48.4469 30.4002 47.8365 30.4002 47.2H37.6002C37.6002 47.8365 37.8531 48.4469 38.3031 48.897C38.7532 49.3471 39.3637 49.6 40.0002 49.6C40.6367 49.6 41.2472 49.3471 41.6973 48.897C42.1473 48.4469 42.4002 47.8365 42.4002 47.2H44.8002V40.3024C44.7983 39.6095 44.5289 38.944 44.0481 38.445C43.5674 37.9459 42.9126 37.6518 42.2202 37.624ZM27.4002 44.8C26.9228 44.8 26.465 44.6103 26.1274 44.2728C25.7898 43.9352 25.6002 43.4774 25.6002 43C25.6002 42.5226 25.7898 42.0648 26.1274 41.7272C26.465 41.3896 26.9228 41.2 27.4002 41.2C27.8776 41.2 28.3354 41.3896 28.673 41.7272C29.0106 42.0648 29.2002 42.5226 29.2002 43C29.2002 43.4774 29.0106 43.9352 28.673 44.2728C28.3354 44.6103 27.8776 44.8 27.4002 44.8ZM28.2138 37.6L29.001 32.8L38.9802 32.7832L39.7842 37.6H28.2138ZM40.6002 44.8C40.1228 44.8 39.665 44.6103 39.3274 44.2728C38.9898 43.9352 38.8002 43.4774 38.8002 43C38.8002 42.5226 38.9898 42.0648 39.3274 41.7272C39.665 41.3896 40.1228 41.2 40.6002 41.2C41.0776 41.2 41.5354 41.3896 41.873 41.7272C42.2106 42.0648 42.4002 42.5226 42.4002 43C42.4002 43.4774 42.2106 43.9352 41.873 44.2728C41.5354 44.6103 41.0776 44.8 40.6002 44.8Z" fill="#9E9E9E"/>
<path d="M44.7998 20.8H29.8934C29.4268 19.7308 28.6584 18.8209 27.6824 18.182C26.7064 17.543 25.5652 17.2026 24.3986 17.2026C23.232 17.2026 22.0908 17.543 21.1148 18.182C20.1388 18.8209 19.3704 19.7308 18.9038 20.8H24.3998L25.5998 23.2L24.3998 25.6H18.9062C19.3728 26.6692 20.1412 27.5791 21.1172 28.218C22.0932 28.857 23.2344 29.1974 24.401 29.1974C25.5676 29.1974 26.7088 28.857 27.6848 28.218C28.6608 27.5791 29.4292 26.6692 29.8958 25.6H44.7998C45.4363 25.6 46.0468 25.3471 46.4969 24.8971C46.9469 24.447 47.1998 23.8365 47.1998 23.2C47.1998 22.5635 46.9469 21.953 46.4969 21.5029C46.0468 21.0529 45.4363 20.8 44.7998 20.8Z" fill="#9E9E9E"/>
</svg>
