<svg width="68" height="68" viewBox="0 0 68 68" fill="none" xmlns="http://www.w3.org/2000/svg">
<circle cx="34" cy="34" r="34" fill="#F2F2F2"/>
<path d="M33.1894 49.4438C33.6549 49.6924 34.2392 49.6908 34.7047 49.4422C47.3903 42.6276 48.2912 29.3133 48.2802 25.5276C48.279 25.2233 48.189 24.926 48.0214 24.672C47.8538 24.4181 47.6158 24.2185 47.3365 24.0978L34.5907 18.4517C34.3878 18.3622 34.1685 18.3162 33.9469 18.3165C33.7252 18.3167 33.506 18.3633 33.3034 18.4532L20.6462 24.0994C20.3711 24.2202 20.1364 24.4175 19.9702 24.6679C19.804 24.9183 19.7133 25.2112 19.7089 25.5117C19.6551 29.2785 20.4135 42.6212 33.1894 49.4438ZM28.7339 31.2972L32.3645 34.9278L39.1617 28.1306L41.4006 30.3694L32.3645 39.4055L26.4951 33.5361L28.7339 31.2972Z" fill="#9E9E9E"/>
</svg>
