<svg width="68" height="68" viewBox="0 0 68 68" fill="none" xmlns="http://www.w3.org/2000/svg">
<circle cx="34" cy="34" r="34" fill="#F2F2F2"/>
<g clip-path="url(#clip0)">
<path d="M46.9202 48.28C48.4224 48.28 49.6402 47.0622 49.6402 45.56C49.6402 44.0578 48.4224 42.84 46.9202 42.84C45.418 42.84 44.2002 44.0578 44.2002 45.56C44.2002 47.0622 45.418 48.28 46.9202 48.28Z" fill="#9E9E9E"/>
<path d="M27.2 48.28C28.7022 48.28 29.92 47.0622 29.92 45.56C29.92 44.0578 28.7022 42.84 27.2 42.84C25.6978 42.84 24.48 44.0578 24.48 45.56C24.48 47.0622 25.6978 48.28 27.2 48.28Z" fill="#9E9E9E"/>
<path d="M48.96 39.44H27.7243L28.1778 38.7043C28.3723 38.3887 28.4294 38.0073 28.3363 37.6482L27.8936 35.9441L47.602 34.9201C48.3494 34.882 48.96 34.238 48.96 33.49V24.48C48.96 23.732 48.348 23.12 47.6 23.12H24.5609L24.295 22.098C24.2193 21.8065 24.0489 21.5484 23.8107 21.3641C23.5724 21.1799 23.2797 21.08 22.9786 21.08H18.36C17.9993 21.08 17.6534 21.2233 17.3983 21.4784C17.1433 21.7334 17 22.0793 17 22.44C17 22.8007 17.1433 23.1466 17.3983 23.4017C17.6534 23.6567 17.9993 23.8 18.36 23.8H21.9273L25.5585 37.7706L24.1305 40.086C24.0035 40.292 23.9338 40.5282 23.9286 40.7702C23.9235 41.0122 23.9831 41.2511 24.1012 41.4623C24.2189 41.6738 24.391 41.85 24.5996 41.9727C24.8082 42.0953 25.0458 42.16 25.2878 42.16H48.96C49.3207 42.16 49.6666 42.0167 49.9217 41.7617C50.1767 41.5066 50.32 41.1607 50.32 40.8C50.32 40.4393 50.1767 40.0934 49.9217 39.8384C49.6666 39.5833 49.3207 39.44 48.96 39.44Z" fill="#9E9E9E"/>
</g>
<defs>
<clipPath id="clip0">
<rect width="34" height="34" fill="white" transform="translate(17 17)"/>
</clipPath>
</defs>
</svg>
