<svg width="68" height="68" viewBox="0 0 68 68" fill="none" xmlns="http://www.w3.org/2000/svg">
<circle cx="34" cy="34" r="34" fill="#F2F2F2"/>
<path d="M38.5 31H46.585L41.59 25H38.5V31ZM42.25 43.75C42.835 43.75 43.36 43.555 43.81 43.105C44.26 42.655 44.5 42.13 44.5 41.5C44.5 40.915 44.26 40.39 43.81 39.94C43.36 39.49 42.835 39.25 42.25 39.25C41.62 39.25 41.095 39.49 40.645 39.94C40.195 40.39 40 40.915 40 41.5C40 42.13 40.195 42.655 40.645 43.105C41.095 43.555 41.62 43.75 42.25 43.75ZM25 43.75C25.66 43.75 26.2 43.555 26.62 43.105C27.04 42.655 27.25 42.13 27.25 41.5C27.25 40.915 27.04 40.39 26.62 39.94C26.2 39.49 25.66 39.25 25 39.25C24.34 39.25 23.8 39.49 23.38 39.94C22.96 40.39 22.75 40.915 22.75 41.5C22.75 42.13 22.96 42.655 23.38 43.105C23.8 43.555 24.34 43.75 25 43.75ZM43 22L50.5 31V41.5H46.75C46.75 42.745 46.285 43.795 45.385 44.695C44.5 45.58 43.45 46 42.25 46C41.005 46 39.955 45.58 39.07 44.695C38.17 43.795 37.75 42.745 37.75 41.5H29.5C29.5 42.745 29.05 43.795 28.165 44.695C27.25 45.58 26.215 46 25 46C23.785 46 22.75 45.58 21.835 44.695C20.95 43.795 20.5 42.745 20.5 41.5H17.5V35.5H29.785L20.5 28.165V32.5H17.5V23.5H19L35.5 32.59V22H43Z" fill="#9E9E9E"/>
</svg>
