<svg width="68" height="68" viewBox="0 0 68 68" fill="none" xmlns="http://www.w3.org/2000/svg">
<circle cx="34" cy="34" r="34" fill="#F2F2F2"/>
<path d="M26.1562 32.6659H29.2343V35.7029H26.1562V32.6659ZM26.1562 38.7399H29.2343V41.777H26.1562V38.7399ZM32.3124 32.6659H35.3904V35.7029H32.3124V32.6659ZM32.3124 38.7399H35.3904V41.777H32.3124V38.7399ZM38.4685 32.6659H41.5466V35.7029H38.4685V32.6659ZM38.4685 38.7399H41.5466V41.777H38.4685V38.7399Z" fill="#9E9E9E"/>
<path d="M23.0781 49.3702H44.6245C46.3221 49.3702 47.7026 48.0081 47.7026 46.3332V25.074C47.7026 23.3991 46.3221 22.037 44.6245 22.037H41.5464V19H38.4684V22.037H29.2342V19H26.1561V22.037H23.0781C21.3805 22.037 20 23.3991 20 25.074V46.3332C20 48.0081 21.3805 49.3702 23.0781 49.3702ZM44.6245 28.1111L44.626 46.3332H23.0781V28.1111H44.6245Z" fill="#9E9E9E"/>
</svg>
