<svg width="26" height="25" viewBox="0 0 26 25" fill="none" xmlns="http://www.w3.org/2000/svg">
<path fill-rule="evenodd" clip-rule="evenodd" d="M12.7229 23.4375C15.6629 23.4375 18.4825 22.2852 20.5614 20.234C22.6403 18.1828 23.8082 15.4008 23.8082 12.5C23.8082 9.59919 22.6403 6.8172 20.5614 4.76602C18.4825 2.71484 15.6629 1.5625 12.7229 1.5625C9.78287 1.5625 6.96328 2.71484 4.88438 4.76602C2.80548 6.8172 1.63757 9.59919 1.63757 12.5C1.63757 15.4008 2.80548 18.1828 4.88438 20.234C6.96328 22.2852 9.78287 23.4375 12.7229 23.4375ZM25.3918 12.5C25.3918 15.8152 24.057 18.9946 21.6812 21.3388C19.3053 23.683 16.0829 25 12.7229 25C9.36287 25 6.14048 23.683 3.7646 21.3388C1.38871 18.9946 0.0539551 15.8152 0.0539551 12.5C0.0539551 9.18479 1.38871 6.00537 3.7646 3.66117C6.14048 1.31696 9.36287 0 12.7229 0C16.0829 0 19.3053 1.31696 21.6812 3.66117C24.057 6.00537 25.3918 9.18479 25.3918 12.5Z" fill="#9E9E9E"/>
<path fill-rule="evenodd" clip-rule="evenodd" d="M11.931 4.6875C12.141 4.6875 12.3424 4.76981 12.4909 4.91632C12.6394 5.06284 12.7228 5.26155 12.7228 5.46875V13.6094L17.8664 16.5094C18.0434 16.6147 18.1716 16.7843 18.2237 16.9817C18.2757 17.1791 18.2474 17.3888 18.1448 17.5659C18.0423 17.7431 17.8735 17.8736 17.6747 17.9296C17.4759 17.9856 17.2628 17.9626 17.0809 17.8656L11.5382 14.7406C11.417 14.6723 11.3163 14.5736 11.2462 14.4545C11.1761 14.3355 11.1392 14.2002 11.1392 14.0625V5.46875C11.1392 5.26155 11.2226 5.06284 11.3711 4.91632C11.5196 4.76981 11.721 4.6875 11.931 4.6875Z" fill="#9E9E9E"/>
</svg>
