<svg width="68" height="68" viewBox="0 0 68 68" fill="none" xmlns="http://www.w3.org/2000/svg">
<circle cx="34" cy="34" r="34" fill="#F2F2F2"/>
<path d="M25.6 31.536C27.2 31.536 28.552 32.016 29.656 32.976C30.76 33.92 31.312 35.232 31.312 36.912C31.312 38.592 30.744 39.912 29.608 40.872C28.472 41.832 27.08 42.312 25.432 42.312C24.104 42.312 22.928 42.008 21.904 41.4C20.88 40.776 20.152 39.88 19.72 38.712L22.096 37.344C22.544 38.864 23.656 39.624 25.432 39.624C26.376 39.624 27.128 39.384 27.688 38.904C28.264 38.408 28.552 37.744 28.552 36.912C28.552 36.08 28.272 35.424 27.712 34.944C27.152 34.464 26.408 34.224 25.48 34.224H20.584L21.232 25.2H30.592V27.792H23.776L23.488 31.536H25.6ZM39.5294 31.464C38.7934 32.2 37.8654 32.568 36.7454 32.568C35.6254 32.568 34.6894 32.2 33.9374 31.464C33.1854 30.712 32.8094 29.8 32.8094 28.728C32.8094 27.656 33.1854 26.752 33.9374 26.016C34.6894 25.264 35.6254 24.888 36.7454 24.888C37.8654 24.888 38.7934 25.256 39.5294 25.992C40.2814 26.728 40.6574 27.64 40.6574 28.728C40.6574 29.8 40.2814 30.712 39.5294 31.464ZM36.7214 30.456C37.2334 30.456 37.6494 30.288 37.9694 29.952C38.2894 29.616 38.4494 29.208 38.4494 28.728C38.4494 28.232 38.2894 27.816 37.9694 27.48C37.6494 27.144 37.2334 26.976 36.7214 26.976C36.2254 26.976 35.8174 27.144 35.4974 27.48C35.1774 27.816 35.0174 28.232 35.0174 28.728C35.0174 29.208 35.1774 29.616 35.4974 29.952C35.8174 30.288 36.2254 30.456 36.7214 30.456ZM34.2254 39.528L45.2894 27.216L46.5854 27.96L35.5214 40.296L34.2254 39.528ZM44.4254 42.288C43.3054 42.288 42.3694 41.92 41.6174 41.184C40.8654 40.432 40.4894 39.52 40.4894 38.448C40.4894 37.376 40.8654 36.472 41.6174 35.736C42.3694 34.984 43.3054 34.608 44.4254 34.608C45.5294 34.608 46.4574 34.984 47.2094 35.736C47.9614 36.472 48.3374 37.376 48.3374 38.448C48.3374 39.52 47.9614 40.432 47.2094 41.184C46.4574 41.92 45.5294 42.288 44.4254 42.288ZM44.4014 40.176C44.9134 40.176 45.3294 40.008 45.6494 39.672C45.9694 39.336 46.1294 38.928 46.1294 38.448C46.1294 37.952 45.9694 37.536 45.6494 37.2C45.3294 36.864 44.9134 36.696 44.4014 36.696C43.9054 36.696 43.4974 36.864 43.1774 37.2C42.8574 37.536 42.6974 37.952 42.6974 38.448C42.6974 38.928 42.8574 39.336 43.1774 39.672C43.4974 40.008 43.9054 40.176 44.4014 40.176Z" fill="#9E9E9E"/>
</svg>
