<svg width="68" height="68" viewBox="0 0 68 68" fill="none" xmlns="http://www.w3.org/2000/svg">
<circle cx="34" cy="34" r="34" fill="#F2F2F2"/>
<path d="M48.25 22.9167H19.75C19.3301 22.9167 18.9273 23.0836 18.6304 23.3805C18.3335 23.6774 18.1667 24.0802 18.1667 24.5001V30.8334H19.5806C21.1576 30.8334 22.6206 31.9117 22.8739 33.4681C22.9511 33.9226 22.9282 34.3884 22.8067 34.8331C22.6853 35.2778 22.4683 35.6906 22.1708 36.0428C21.8734 36.395 21.5026 36.678 21.0845 36.8721C20.6664 37.0663 20.211 37.1668 19.75 37.1667H18.1667V43.5001C18.1667 43.92 18.3335 44.3227 18.6304 44.6197C18.9273 44.9166 19.3301 45.0834 19.75 45.0834H48.25C48.6699 45.0834 49.0726 44.9166 49.3696 44.6197C49.6665 44.3227 49.8333 43.92 49.8333 43.5001V37.1667H48.25C47.789 37.1668 47.3336 37.0663 46.9154 36.8721C46.4973 36.678 46.1266 36.395 45.8292 36.0428C45.5317 35.6906 45.3147 35.2778 45.1933 34.8331C45.0718 34.3884 45.0489 33.9226 45.1261 33.4681C45.3794 31.9117 46.8424 30.8334 48.4194 30.8334H49.8333V24.5001C49.8333 24.0802 49.6665 23.6774 49.3696 23.3805C49.0726 23.0836 48.6699 22.9167 48.25 22.9167ZM29.25 29.2501C29.6699 29.2501 30.0726 29.4169 30.3696 29.7138C30.6665 30.0108 30.8333 30.4135 30.8333 30.8334C30.8333 31.2533 30.6665 31.6561 30.3696 31.953C30.0726 32.2499 29.6699 32.4167 29.25 32.4167C28.8301 32.4167 28.4273 32.2499 28.1304 31.953C27.8335 31.6561 27.6667 31.2533 27.6667 30.8334C27.6667 30.4135 27.8335 30.0108 28.1304 29.7138C28.4273 29.4169 28.8301 29.2501 29.25 29.2501ZM27.9833 39.3834L37.4833 26.7167L40.0167 28.6167L30.5167 41.2834L27.9833 39.3834ZM38.75 38.7501C38.3301 38.7501 37.9273 38.5833 37.6304 38.2863C37.3335 37.9894 37.1667 37.5867 37.1667 37.1667C37.1667 36.7468 37.3335 36.3441 37.6304 36.0472C37.9273 35.7502 38.3301 35.5834 38.75 35.5834C39.1699 35.5834 39.5726 35.7502 39.8696 36.0472C40.1665 36.3441 40.3333 36.7468 40.3333 37.1667C40.3333 37.5867 40.1665 37.9894 39.8696 38.2863C39.5726 38.5833 39.1699 38.7501 38.75 38.7501Z" fill="#9E9E9E"/>
</svg>
