<svg width="68" height="68" viewBox="0 0 68 68" fill="none" xmlns="http://www.w3.org/2000/svg">
<circle cx="34" cy="34" r="34" fill="#F2F2F2"/>
<g clip-path="url(#clip0)">
<path d="M26.25 34C29.877 34 32.8125 31.0645 32.8125 27.4375C32.8125 23.8105 29.877 20.875 26.25 20.875C22.623 20.875 19.6875 23.8105 19.6875 27.4375C19.6875 31.0645 22.623 34 26.25 34ZM30.75 35.875H30.2637C29.0449 36.4609 27.6914 36.8125 26.25 36.8125C24.8086 36.8125 23.4609 36.4609 22.2363 35.875H21.75C18.0234 35.875 15 38.8984 15 42.625V44.3125C15 45.8652 16.2598 47.125 17.8125 47.125H34.6875C36.2402 47.125 37.5 45.8652 37.5 44.3125V42.625C37.5 38.8984 34.4766 35.875 30.75 35.875ZM43.125 34C46.2305 34 48.75 31.4805 48.75 28.375C48.75 25.2695 46.2305 22.75 43.125 22.75C40.0195 22.75 37.5 25.2695 37.5 28.375C37.5 31.4805 40.0195 34 43.125 34ZM45.9375 35.875H45.7148C44.9004 36.1562 44.0391 36.3438 43.125 36.3438C42.2109 36.3438 41.3496 36.1562 40.5352 35.875H40.3125C39.1172 35.875 38.0156 36.2207 37.0488 36.7773C38.4785 38.3184 39.375 40.3633 39.375 42.625V44.875C39.375 45.0039 39.3457 45.127 39.3398 45.25H49.6875C51.2402 45.25 52.5 43.9902 52.5 42.4375C52.5 38.8105 49.5645 35.875 45.9375 35.875Z" fill="#9E9E9E"/>
</g>
<defs>
<clipPath id="clip0">
<rect width="37.5" height="30" fill="white" transform="translate(15 19)"/>
</clipPath>
</defs>
</svg>
