<svg width="19" height="15" viewBox="0 0 19 15" fill="none" xmlns="http://www.w3.org/2000/svg">
<path fill-rule="evenodd" clip-rule="evenodd" d="M0.135417 1.08125C0.135417 0.804981 0.245163 0.540029 0.440514 0.344679C0.635864 0.149328 0.900816 0.0395813 1.17708 0.0395813H17.8333C18.1096 0.0395813 18.3746 0.149328 18.5699 0.344679C18.7653 0.540029 18.875 0.804981 18.875 1.08125V12.8771C18.875 13.4296 18.6555 13.9595 18.2648 14.3502C17.8741 14.7409 17.3442 14.9604 16.7917 14.9604H2.20833C1.6558 14.9604 1.12589 14.7409 0.735194 14.3502C0.344493 13.9595 0.125 13.4296 0.125 12.8771V1.41875C0.125 1.36875 0.128125 1.32083 0.135417 1.27291V1.08125ZM2.20833 3.39791V12.8771H16.7917V3.39791L11.7094 8.48021C11.1234 9.06605 10.3286 9.39516 9.5 9.39516C8.67136 9.39516 7.87665 9.06605 7.29062 8.48021L2.20833 3.39583V3.39791ZM3.84583 2.08958H15.1542L10.2375 7.00625C10.1408 7.1031 10.0259 7.17993 9.89942 7.23235C9.77296 7.28477 9.63741 7.31175 9.50052 7.31175C9.36363 7.31175 9.22808 7.28477 9.10162 7.23235C8.97517 7.17993 8.86028 7.1031 8.76354 7.00625L3.84687 2.08958H3.84583Z" fill="#9E9E9E"/>
</svg>
