<svg width="21" height="21" viewBox="0 0 21 21" fill="none" xmlns="http://www.w3.org/2000/svg">
<path d="M19.4844 0.734375H1.51562C1.0835 0.734375 0.734375 1.0835 0.734375 1.51562V19.4844C0.734375 19.9165 1.0835 20.2656 1.51562 20.2656H19.4844C19.9165 20.2656 20.2656 19.9165 20.2656 19.4844V1.51562C20.2656 1.0835 19.9165 0.734375 19.4844 0.734375ZM18.7031 18.7031H14.2085V12.7021H16.7476L17.1284 9.75537H14.2085V7.87305C14.2085 7.01855 14.4453 6.4375 15.6685 6.4375H17.2285V3.80078C16.9575 3.76416 16.0322 3.68359 14.9531 3.68359C12.7021 3.68359 11.1616 5.05811 11.1616 7.58008V9.75293H8.61768V12.6997H11.1641V18.7031H2.29688V2.29688H18.7031V18.7031Z" fill="#9E9E9E"/>
</svg>
