<svg width="26" height="25" viewBox="0 0 26 25" fill="none" xmlns="http://www.w3.org/2000/svg">
<path d="M6.81299 11.2778H9.29047V13.7222H6.81299V11.2778ZM6.81299 16.1667H9.29047V18.6111H6.81299V16.1667ZM11.7679 11.2778H14.2454V13.7222H11.7679V11.2778ZM11.7679 16.1667H14.2454V18.6111H11.7679V16.1667ZM16.7229 11.2778H19.2004V13.7222H16.7229V11.2778ZM16.7229 16.1667H19.2004V18.6111H16.7229V16.1667Z" fill="#9E9E9E"/>
<path d="M4.33539 24.7228H21.6777C23.0441 24.7228 24.1552 23.6265 24.1552 22.2783V5.16723C24.1552 3.81912 23.0441 2.72279 21.6777 2.72279H19.2003V0.278343H16.7228V2.72279H9.29034V0.278343H6.81287V2.72279H4.33539C2.96906 2.72279 1.85791 3.81912 1.85791 5.16723V22.2783C1.85791 23.6265 2.96906 24.7228 4.33539 24.7228ZM21.6777 7.61168L21.679 22.2783H4.33539V7.61168H21.6777Z" fill="#9E9E9E"/>
</svg>
