<svg width="20" height="20" viewBox="0 0 20 20" fill="none" xmlns="http://www.w3.org/2000/svg">
<path d="M12.5 2.5C12.7211 2.5 12.933 2.5878 13.0893 2.74408C13.2456 2.90036 13.3334 3.11232 13.3334 3.33333V5H16.6667C16.8877 5 17.0997 5.0878 17.256 5.24408C17.4122 5.40036 17.5 5.61232 17.5 5.83333V15.8333H19.1667V17.5H0.833374V15.8333H2.50004V5.83333C2.50004 5.61232 2.58784 5.40036 2.74412 5.24408C2.9004 5.0878 3.11236 5 3.33337 5H6.66671V3.33333C6.66671 3.11232 6.7545 2.90036 6.91078 2.74408C7.06706 2.5878 7.27903 2.5 7.50004 2.5H12.5ZM6.66671 6.66667H4.16671V15.8333H6.66671V6.66667ZM11.6667 6.66667H8.33337V15.8333H11.6667V6.66667ZM15.8334 6.66667H13.3334V15.8333H15.8334V6.66667ZM11.6667 4.16667H8.33337V5H11.6667V4.16667Z" fill="#9E9E9E"/>
</svg>
