<svg width="68" height="68" viewBox="0 0 68 68" fill="none" xmlns="http://www.w3.org/2000/svg">
<circle cx="34" cy="34" r="34" fill="#F2F2F2"/>
<g clip-path="url(#clip0)">
<path d="M32.0843 39.2308C32.0843 38.6918 32.0469 38.1902 31.972 37.726C31.8972 37.2619 31.7749 36.8127 31.6052 36.3784C31.4355 35.9442 31.181 35.6023 30.8416 35.3528C30.5022 35.1032 30.0979 34.9785 29.6288 34.9785C28.9899 35.6173 28.2113 35.9367 27.293 35.9367C26.3746 35.9367 25.596 35.6173 24.9572 34.9785C24.488 34.9785 24.0837 35.1032 23.7443 35.3528C23.4049 35.6023 23.1504 35.9442 22.9807 36.3784C22.811 36.8127 22.6887 37.2619 22.6139 37.726C22.539 38.1902 22.5016 38.6918 22.5016 39.2308C22.5016 39.7798 22.6588 40.2465 22.9732 40.6308C23.2877 41.0151 23.6645 41.2073 24.1037 41.2073H30.4822C30.9214 41.2073 31.2983 41.0151 31.6127 40.6308C31.9271 40.2465 32.0843 39.7798 32.0843 39.2308ZM30.1678 32.5828C30.1678 31.7842 29.8883 31.1054 29.3293 30.5464C28.7703 29.9874 28.0915 29.7079 27.293 29.7079C26.4944 29.7079 25.8156 29.9874 25.2566 30.5464C24.6976 31.1054 24.4181 31.7842 24.4181 32.5828C24.4181 33.3813 24.6976 34.0601 25.2566 34.6191C25.8156 35.1781 26.4944 35.4576 27.293 35.4576C28.0915 35.4576 28.7703 35.1781 29.3293 34.6191C29.8883 34.0601 30.1678 33.3813 30.1678 32.5828ZM45.5002 39.7699V38.8116C45.5002 38.6718 45.4553 38.557 45.3655 38.4672C45.2756 38.3774 45.1608 38.3324 45.0211 38.3324H34.48C34.3403 38.3324 34.2255 38.3774 34.1356 38.4672C34.0458 38.557 34.0009 38.6718 34.0009 38.8116V39.7699C34.0009 39.9096 34.0458 40.0244 34.1356 40.1142C34.2255 40.2041 34.3403 40.249 34.48 40.249H45.0211C45.1608 40.249 45.2756 40.2041 45.3655 40.1142C45.4553 40.0244 45.5002 39.9096 45.5002 39.7699ZM39.7506 35.9367V34.9785C39.7506 34.8387 39.7056 34.7239 39.6158 34.6341C39.526 34.5442 39.4112 34.4993 39.2714 34.4993H34.48C34.3403 34.4993 34.2255 34.5442 34.1356 34.6341C34.0458 34.7239 34.0009 34.8387 34.0009 34.9785V35.9367C34.0009 36.0765 34.0458 36.1913 34.1356 36.2811C34.2255 36.371 34.3403 36.4159 34.48 36.4159H39.2714C39.4112 36.4159 39.526 36.371 39.6158 36.2811C39.7056 36.1913 39.7506 36.0765 39.7506 35.9367ZM45.5002 35.9367V34.9785C45.5002 34.8387 45.4553 34.7239 45.3655 34.6341C45.2756 34.5442 45.1608 34.4993 45.0211 34.4993H42.1462C42.0065 34.4993 41.8917 34.5442 41.8019 34.6341C41.712 34.7239 41.6671 34.8387 41.6671 34.9785V35.9367C41.6671 36.0765 41.712 36.1913 41.8019 36.2811C41.8917 36.371 42.0065 36.4159 42.1462 36.4159H45.0211C45.1608 36.4159 45.2756 36.371 45.3655 36.2811C45.4553 36.1913 45.5002 36.0765 45.5002 35.9367ZM45.5002 32.1036V31.1454C45.5002 31.0056 45.4553 30.8908 45.3655 30.801C45.2756 30.7111 45.1608 30.6662 45.0211 30.6662H34.48C34.3403 30.6662 34.2255 30.7111 34.1356 30.801C34.0458 30.8908 34.0009 31.0056 34.0009 31.1454V32.1036C34.0009 32.2434 34.0458 32.3582 34.1356 32.448C34.2255 32.5379 34.3403 32.5828 34.48 32.5828H45.0211C45.1608 32.5828 45.2756 32.5379 45.3655 32.448C45.4553 32.3582 45.5002 32.2434 45.5002 32.1036ZM20.585 26.8331H47.4168V25.3957C47.4168 25.2559 47.3719 25.1412 47.282 25.0513C47.1922 24.9615 47.0774 24.9166 46.9376 24.9166H21.0641C20.9244 24.9166 20.8096 24.9615 20.7198 25.0513C20.6299 25.1412 20.585 25.2559 20.585 25.3957V26.8331ZM49.3333 25.3957V43.603C49.3333 44.2618 49.0987 44.8258 48.6296 45.2949C48.1604 45.7641 47.5964 45.9987 46.9376 45.9987H21.0641C20.4053 45.9987 19.8413 45.7641 19.3722 45.2949C18.903 44.8258 18.6685 44.2618 18.6685 43.603V25.3957C18.6685 24.7369 18.903 24.1729 19.3722 23.7037C19.8413 23.2346 20.4053 23 21.0641 23H46.9376C47.5964 23 48.1604 23.2346 48.6296 23.7037C49.0987 24.1729 49.3333 24.7369 49.3333 25.3957Z" fill="#9E9E9E"/>
</g>
<defs>
<clipPath id="clip0">
<rect width="30.6664" height="22.9987" fill="white" transform="translate(18.667 23)"/>
</clipPath>
</defs>
</svg>
