<svg width="17" height="17" viewBox="0 0 17 17" fill="none" xmlns="http://www.w3.org/2000/svg">
<path d="M14.8748 11.1405V12.9533C14.8755 13.1215 14.8409 13.2881 14.7734 13.4423C14.7058 13.5965 14.6068 13.7349 14.4825 13.8487C14.3583 13.9624 14.2116 14.0491 14.0518 14.103C13.8921 14.1569 13.7228 14.1769 13.5549 14.1618C11.6918 13.9597 9.90221 13.3244 8.32986 12.3067C6.86698 11.379 5.62672 10.1412 4.69715 8.68119C3.67392 7.10482 3.03715 5.31007 2.83841 3.44233C2.82328 3.27523 2.84318 3.10682 2.89684 2.94782C2.9505 2.78882 3.03674 2.64271 3.15008 2.5188C3.26341 2.39489 3.40136 2.29589 3.55514 2.2281C3.70891 2.16031 3.87515 2.12522 4.04326 2.12506H5.85961C6.15344 2.12217 6.4383 2.22602 6.66109 2.41723C6.88388 2.60845 7.02939 2.874 7.07052 3.16437C7.14718 3.74449 7.28936 4.3141 7.49433 4.86232C7.57579 5.0786 7.59342 5.31365 7.54513 5.53961C7.49685 5.76558 7.38466 5.973 7.22188 6.13729L6.45296 6.90469C7.31485 8.41747 8.56989 9.67002 10.0857 10.5302L10.8546 9.76281C11.0192 9.60034 11.227 9.48838 11.4535 9.44019C11.6799 9.392 11.9154 9.40959 12.1321 9.49089C12.6814 9.69546 13.2521 9.83736 13.8334 9.91387C14.1275 9.95528 14.3961 10.1031 14.5881 10.3293C14.7801 10.5555 14.8822 10.8442 14.8748 11.1405Z" stroke="#212121" stroke-linecap="round" stroke-linejoin="round"/>
</svg>
