<svg width="68" height="68" viewBox="0 0 68 68" fill="none" xmlns="http://www.w3.org/2000/svg">
<circle cx="34" cy="34" r="34" fill="#F2F2F2"/>
<path d="M23.5375 47.1625C23.4861 47.3825 23.4852 47.6113 23.5348 47.8317C23.5844 48.0521 23.6833 48.2585 23.824 48.4353C23.9647 48.612 24.1436 48.7547 24.3473 48.8525C24.5509 48.9503 24.7741 49.0007 25 49C25.2963 49.0001 25.586 48.9124 25.8325 48.748L34 43.303L42.1675 48.748C42.423 48.9176 42.7244 49.005 43.031 48.9982C43.3376 48.9915 43.6348 48.8911 43.8826 48.7104C44.1304 48.5297 44.317 48.2775 44.4172 47.9876C44.5174 47.6977 44.5264 47.3841 44.443 47.089L41.6995 37.489L48.5035 31.366C48.7215 31.1698 48.8771 30.914 48.9512 30.6303C49.0252 30.3465 49.0145 30.0473 48.9204 29.7696C48.8262 29.4919 48.6527 29.2479 48.4213 29.0677C48.19 28.8876 47.9109 28.7792 47.6185 28.756L39.067 28.075L35.3665 19.8835C35.2487 19.6197 35.057 19.3956 34.8146 19.2383C34.5722 19.081 34.2895 18.9972 34.0005 18.997C33.7116 18.9969 33.4287 19.0804 33.1862 19.2374C32.9436 19.3944 32.7517 19.6183 32.6335 19.882L28.933 28.075L20.3815 28.7545C20.0942 28.7773 19.8195 28.8823 19.5904 29.0571C19.3612 29.2319 19.1872 29.469 19.0893 29.74C18.9913 30.0111 18.9735 30.3046 19.0381 30.5856C19.1026 30.8665 19.2466 31.1228 19.453 31.324L25.774 37.4845L23.5375 47.1625ZM34 24.1435L37.063 30.925L37.945 30.9955H37.9465L43.9045 31.468L38.998 35.884L38.9965 35.887L38.302 36.511L38.5585 37.4065V37.411L40.438 43.9885L34 39.697V24.1435Z" fill="#9E9E9E"/>
</svg>
